<mxfile host="app.diagrams.net" agent="Mozilla/5.0 (Windows NT 10.0; Win64; x64) AppleWebKit/537.36 (KHTML, like Gecko) Chrome/128.0.0.0 Safari/537.36" version="24.7.12">
  <diagram name="Page-1" id="N-krJ3tIAqb_3J5wHUPh">
    <mxGraphModel dx="1434" dy="738" grid="1" gridSize="10" guides="1" tooltips="1" connect="1" arrows="1" fold="1" page="1" pageScale="1" pageWidth="1100" pageHeight="850" math="0" shadow="0">
      <root>
        <mxCell id="0" />
        <mxCell id="1" parent="0" />
        <mxCell id="r-4luZkgWul_Bj3rpGCa-16" style="edgeStyle=orthogonalEdgeStyle;rounded=0;orthogonalLoop=1;jettySize=auto;html=1;strokeWidth=2;" edge="1" parent="1" source="r-4luZkgWul_Bj3rpGCa-1">
          <mxGeometry relative="1" as="geometry">
            <mxPoint x="480" y="490" as="targetPoint" />
            <Array as="points">
              <mxPoint x="310" y="491" />
              <mxPoint x="310" y="491" />
            </Array>
          </mxGeometry>
        </mxCell>
        <mxCell id="r-4luZkgWul_Bj3rpGCa-1" value="&lt;b&gt;Kali Linux&lt;/b&gt;&lt;div&gt;&lt;b&gt;192.168.1.10&lt;/b&gt;&lt;/div&gt;&lt;div&gt;&lt;b&gt;EM1&lt;/b&gt;&lt;/div&gt;&lt;div&gt;&lt;b&gt;&lt;br&gt;&lt;/b&gt;&lt;/div&gt;" style="verticalLabelPosition=bottom;html=1;verticalAlign=top;align=center;strokeColor=#B81F00;fillColor=#f8cecc;shape=mxgraph.azure.computer;pointerEvents=1;" vertex="1" parent="1">
          <mxGeometry x="140" y="480" width="60" height="55" as="geometry" />
        </mxCell>
        <mxCell id="r-4luZkgWul_Bj3rpGCa-2" value="&lt;b&gt;pfsense&lt;/b&gt;&lt;div&gt;&lt;b&gt;192.168.1.1&lt;/b&gt;&lt;/div&gt;" style="image;html=1;image=img/lib/clip_art/networking/Firewall-page1_128x128.png" vertex="1" parent="1">
          <mxGeometry x="510" y="440" width="50" height="67.5" as="geometry" />
        </mxCell>
        <mxCell id="r-4luZkgWul_Bj3rpGCa-19" style="edgeStyle=orthogonalEdgeStyle;rounded=0;orthogonalLoop=1;jettySize=auto;html=1;strokeWidth=2;" edge="1" parent="1" source="r-4luZkgWul_Bj3rpGCa-3">
          <mxGeometry relative="1" as="geometry">
            <mxPoint x="540" y="550" as="targetPoint" />
          </mxGeometry>
        </mxCell>
        <mxCell id="r-4luZkgWul_Bj3rpGCa-3" value="&lt;b&gt;Security Onion&lt;/b&gt;&lt;div&gt;&lt;b&gt;192.168.3.10&lt;/b&gt;&lt;/div&gt;&lt;div&gt;&lt;b&gt;em3&lt;/b&gt;&lt;/div&gt;&lt;div&gt;&lt;b&gt;&lt;br&gt;&lt;/b&gt;&lt;/div&gt;" style="image;html=1;image=img/lib/clip_art/computers/Server_128x128.png" vertex="1" parent="1">
          <mxGeometry x="515" y="690" width="50" height="50" as="geometry" />
        </mxCell>
        <mxCell id="r-4luZkgWul_Bj3rpGCa-4" value="&lt;b&gt;Splunk&lt;/b&gt;&lt;div&gt;&lt;b&gt;192.168.4.10&lt;/b&gt;&lt;/div&gt;&lt;div&gt;&lt;b&gt;em5&lt;/b&gt;&lt;/div&gt;" style="image;html=1;image=img/lib/clip_art/computers/Server_128x128.png" vertex="1" parent="1">
          <mxGeometry x="640" y="280" width="40" height="50" as="geometry" />
        </mxCell>
        <mxCell id="r-4luZkgWul_Bj3rpGCa-45" style="edgeStyle=orthogonalEdgeStyle;rounded=0;orthogonalLoop=1;jettySize=auto;html=1;strokeWidth=2;" edge="1" parent="1" source="r-4luZkgWul_Bj3rpGCa-5">
          <mxGeometry relative="1" as="geometry">
            <mxPoint x="480" y="200" as="targetPoint" />
            <Array as="points">
              <mxPoint x="481" y="280" />
            </Array>
          </mxGeometry>
        </mxCell>
        <mxCell id="r-4luZkgWul_Bj3rpGCa-5" value="" style="shadow=0;dashed=0;html=1;labelPosition=center;verticalLabelPosition=bottom;verticalAlign=top;align=center;outlineConnect=0;shape=mxgraph.veeam.3d.vmware_host;strokeColor=#000000;" vertex="1" parent="1">
          <mxGeometry x="350" y="260" width="80" height="78" as="geometry" />
        </mxCell>
        <mxCell id="r-4luZkgWul_Bj3rpGCa-6" value="" style="image;html=1;image=img/lib/clip_art/networking/Wireless_Router_128x128.png" vertex="1" parent="1">
          <mxGeometry x="460" y="130" width="60" height="60" as="geometry" />
        </mxCell>
        <mxCell id="r-4luZkgWul_Bj3rpGCa-7" value="" style="image;html=1;image=img/lib/clip_art/networking/Cloud_128x128.png" vertex="1" parent="1">
          <mxGeometry x="590" y="60" width="60" height="60" as="geometry" />
        </mxCell>
        <mxCell id="r-4luZkgWul_Bj3rpGCa-8" value="&lt;b&gt;Domain&amp;nbsp;&lt;/b&gt;&lt;div&gt;&lt;b&gt;Controller&lt;/b&gt;&lt;/div&gt;" style="image;aspect=fixed;perimeter=ellipsePerimeter;html=1;align=center;shadow=0;dashed=0;spacingTop=3;image=img/lib/active_directory/domain_controller.svg;" vertex="1" parent="1">
          <mxGeometry x="840" y="390" width="35" height="50" as="geometry" />
        </mxCell>
        <mxCell id="r-4luZkgWul_Bj3rpGCa-10" value="" style="image;sketch=0;aspect=fixed;html=1;points=[];align=center;fontSize=12;image=img/lib/mscae/VirtualMachineWindows.svg;" vertex="1" parent="1">
          <mxGeometry x="930" y="344" width="50" height="46" as="geometry" />
        </mxCell>
        <mxCell id="r-4luZkgWul_Bj3rpGCa-11" value="" style="image;sketch=0;aspect=fixed;html=1;points=[];align=center;fontSize=12;image=img/lib/mscae/VirtualMachineWindows.svg;" vertex="1" parent="1">
          <mxGeometry x="930" y="461.5" width="50" height="46" as="geometry" />
        </mxCell>
        <mxCell id="r-4luZkgWul_Bj3rpGCa-18" value="Vmnet2" style="text;html=1;align=center;verticalAlign=middle;whiteSpace=wrap;rounded=0;" vertex="1" parent="1">
          <mxGeometry x="300" y="458.75" width="60" height="30" as="geometry" />
        </mxCell>
        <mxCell id="r-4luZkgWul_Bj3rpGCa-21" value="Vmnet4" style="text;html=1;align=center;verticalAlign=middle;whiteSpace=wrap;rounded=0;" vertex="1" parent="1">
          <mxGeometry x="480" y="610" width="60" height="30" as="geometry" />
        </mxCell>
        <mxCell id="r-4luZkgWul_Bj3rpGCa-34" value="" style="endArrow=none;html=1;rounded=1;curved=0;strokeWidth=2;" edge="1" parent="1">
          <mxGeometry width="50" height="50" relative="1" as="geometry">
            <mxPoint x="790" y="560" as="sourcePoint" />
            <mxPoint x="790" y="320" as="targetPoint" />
          </mxGeometry>
        </mxCell>
        <mxCell id="r-4luZkgWul_Bj3rpGCa-35" value="" style="endArrow=none;html=1;rounded=1;curved=0;strokeWidth=2;" edge="1" parent="1">
          <mxGeometry width="50" height="50" relative="1" as="geometry">
            <mxPoint x="1030" y="320" as="sourcePoint" />
            <mxPoint x="790" y="320" as="targetPoint" />
          </mxGeometry>
        </mxCell>
        <mxCell id="r-4luZkgWul_Bj3rpGCa-36" value="" style="endArrow=none;html=1;rounded=1;curved=0;strokeWidth=2;" edge="1" parent="1">
          <mxGeometry width="50" height="50" relative="1" as="geometry">
            <mxPoint x="1030" y="320" as="sourcePoint" />
            <mxPoint x="1030" y="550" as="targetPoint" />
          </mxGeometry>
        </mxCell>
        <mxCell id="r-4luZkgWul_Bj3rpGCa-37" value="" style="endArrow=none;html=1;rounded=1;curved=0;strokeWidth=2;" edge="1" parent="1">
          <mxGeometry width="50" height="50" relative="1" as="geometry">
            <mxPoint x="780" y="550" as="sourcePoint" />
            <mxPoint x="1040" y="550" as="targetPoint" />
          </mxGeometry>
        </mxCell>
        <mxCell id="r-4luZkgWul_Bj3rpGCa-38" value="" style="endArrow=classic;html=1;rounded=0;strokeWidth=2;" edge="1" parent="1">
          <mxGeometry width="50" height="50" relative="1" as="geometry">
            <mxPoint x="780" y="450" as="sourcePoint" />
            <mxPoint x="580" y="470" as="targetPoint" />
          </mxGeometry>
        </mxCell>
        <mxCell id="r-4luZkgWul_Bj3rpGCa-39" value="Vmnet 3" style="text;html=1;align=center;verticalAlign=middle;whiteSpace=wrap;rounded=0;" vertex="1" parent="1">
          <mxGeometry x="630" y="428.75" width="60" height="30" as="geometry" />
        </mxCell>
        <mxCell id="r-4luZkgWul_Bj3rpGCa-40" value="" style="endArrow=classic;html=1;rounded=0;entryX=1;entryY=1;entryDx=0;entryDy=0;strokeWidth=2;" edge="1" parent="1" target="r-4luZkgWul_Bj3rpGCa-4">
          <mxGeometry width="50" height="50" relative="1" as="geometry">
            <mxPoint x="780" y="340" as="sourcePoint" />
            <mxPoint x="790" y="350" as="targetPoint" />
          </mxGeometry>
        </mxCell>
        <mxCell id="r-4luZkgWul_Bj3rpGCa-41" value="" style="endArrow=classic;html=1;rounded=0;strokeWidth=2;" edge="1" parent="1">
          <mxGeometry width="50" height="50" relative="1" as="geometry">
            <mxPoint x="550" y="428.75" as="sourcePoint" />
            <mxPoint x="630" y="320" as="targetPoint" />
          </mxGeometry>
        </mxCell>
        <mxCell id="r-4luZkgWul_Bj3rpGCa-42" value="" style="endArrow=classic;html=1;rounded=0;strokeWidth=2;" edge="1" parent="1">
          <mxGeometry width="50" height="50" relative="1" as="geometry">
            <mxPoint x="700" y="460" as="sourcePoint" />
            <mxPoint x="570" y="700" as="targetPoint" />
          </mxGeometry>
        </mxCell>
        <mxCell id="r-4luZkgWul_Bj3rpGCa-44" value="" style="endArrow=classic;html=1;rounded=0;strokeWidth=2;exitX=0;exitY=0;exitDx=0;exitDy=0;" edge="1" parent="1" source="r-4luZkgWul_Bj3rpGCa-2">
          <mxGeometry width="50" height="50" relative="1" as="geometry">
            <mxPoint x="490" y="450" as="sourcePoint" />
            <mxPoint x="420" y="340" as="targetPoint" />
          </mxGeometry>
        </mxCell>
        <mxCell id="r-4luZkgWul_Bj3rpGCa-47" value="" style="endArrow=classic;html=1;rounded=0;" edge="1" parent="1">
          <mxGeometry width="50" height="50" relative="1" as="geometry">
            <mxPoint x="530" y="150" as="sourcePoint" />
            <mxPoint x="590" y="110" as="targetPoint" />
          </mxGeometry>
        </mxCell>
        <mxCell id="r-4luZkgWul_Bj3rpGCa-50" value="&lt;b&gt;Victim Network&lt;/b&gt;&lt;div&gt;&lt;b&gt;192.168.2.10&lt;/b&gt;&lt;/div&gt;&lt;div&gt;&lt;b&gt;em2&lt;/b&gt;&lt;/div&gt;&lt;div&gt;&lt;br&gt;&lt;/div&gt;" style="text;html=1;align=center;verticalAlign=middle;whiteSpace=wrap;rounded=0;" vertex="1" parent="1">
          <mxGeometry x="770" y="520" width="200" height="30" as="geometry" />
        </mxCell>
        <mxCell id="r-4luZkgWul_Bj3rpGCa-51" value="&lt;b&gt;Span port&amp;nbsp;&lt;/b&gt;&lt;div&gt;&lt;b&gt;em4&lt;/b&gt;&lt;/div&gt;" style="text;html=1;align=center;verticalAlign=middle;whiteSpace=wrap;rounded=0;" vertex="1" parent="1">
          <mxGeometry x="710" y="461.5" width="80" height="30" as="geometry" />
        </mxCell>
        <mxCell id="r-4luZkgWul_Bj3rpGCa-52" value="&lt;b&gt;Universal&lt;/b&gt;&lt;div&gt;&lt;b&gt;forwarder&lt;/b&gt;&lt;/div&gt;" style="text;html=1;align=center;verticalAlign=middle;whiteSpace=wrap;rounded=0;" vertex="1" parent="1">
          <mxGeometry x="720" y="300" width="60" height="30" as="geometry" />
        </mxCell>
        <mxCell id="r-4luZkgWul_Bj3rpGCa-55" value="Vmnet 6" style="text;html=1;align=center;verticalAlign=middle;whiteSpace=wrap;rounded=0;" vertex="1" parent="1">
          <mxGeometry x="530" y="344" width="60" height="30" as="geometry" />
        </mxCell>
        <mxCell id="r-4luZkgWul_Bj3rpGCa-57" value="Vmnet 5" style="text;html=1;align=center;verticalAlign=middle;whiteSpace=wrap;rounded=0;" vertex="1" parent="1">
          <mxGeometry x="620" y="590" width="60" height="30" as="geometry" />
        </mxCell>
      </root>
    </mxGraphModel>
  </diagram>
</mxfile>
